HIERARCHY
ROOT Hips
{
	OFFSET 0.00000 0.00000 0.00000
	CHANNELS 6 Xposition Yposition Zposition Yrotation Zrotation Xrotation 
	JOINT Lumbar
	{
		OFFSET 0 0 0
		CHANNELS 3 Zrotation Xrotation Yrotation
		JOINT Neck
		{
			OFFSET 0.00 0.2701 0.00
			CHANNELS 3 Zrotation Xrotation Yrotation
			End Site
			{
				OFFSET 0.00 0.1379 0.00
			}
		}
		JOINT RightShoulder
		{
			OFFSET 0.0119 0.2289 0.1181
			CHANNELS 3 Zrotation Xrotation Yrotation
			JOINT RightElbow
			{
				OFFSET 0.00 -0.1475 0.00
				CHANNELS 2 Zrotation Yrotation
				JOINT RightWrist
				{
					OFFSET 0.00 -0.1605 0.00
					CHANNELS 2 Zrotation Xrotation
					End Site
					{
						OFFSET 0.0040 -0.1068 0.0006
					}
				}
			}
		}
		JOINT LeftShoulder
		{
			OFFSET 0.0119 0.2289 -0.1181
			CHANNELS 3 Zrotation Xrotation Yrotation
			JOINT LeftElbow
			{
				OFFSET 0.00 -0.1475 0.00
				CHANNELS 2 Zrotation Yrotation
				JOINT LeftWrist
				{
					OFFSET 0.00 -0.1605 0.00
					CHANNELS 2 Zrotation Xrotation
					End Site
					{
						OFFSET 0.0040 -0.1068 -0.0006
					}
				}
			}
		}
	}
	JOINT RightHip
	{
		OFFSET 0.0316 -0.0424 0.0458
		CHANNELS 3 Zrotation Xrotation Yrotation
		JOINT RightKnee
		{
			OFFSET 0.00 -0.2438 0.00
			CHANNELS 1 Zrotation
			JOINT RightAnkle
			{
				OFFSET 0.00 -0.2449 0.00
				CHANNELS 3 Zrotation Xrotation Yrotation
				End Site
				{
					OFFSET 0.1237 -0.0542 0.0051
				}
			}
		}
	}
	JOINT LeftHip
	{
		OFFSET 0.0316 -0.0424 -0.0458
		CHANNELS 3 Zrotation Xrotation Yrotation
		JOINT LeftKnee
		{
			OFFSET 0.00 -0.2438 0.00
			CHANNELS 1 Zrotation
			JOINT LeftAnkle
			{
				OFFSET 0.00 -0.2449 0.00
				CHANNELS 3 Zrotation Xrotation Yrotation
				End Site
				{
					OFFSET 0.1237 -0.0542 -0.0051
				}
			}
		}
	}
}
MOTION
Frames: 33
Frame Time: 0.02
-0.52494 -0.32393 0.01899 22.146 47.45404 -6.78998 -22.02775 4.73594 -5.39048 -40.22321 5.03978 -0.83079 41.18542 2.53436 56.71815 23.22366 65.36352 44.44341 -5.01139 42.21281 11.26604 -64.13641 25.69451 -73.30492 46.64269 4.26924 118.48843 -7.77636 -1.71831 -134.22932 -21.24177 -0.98482 -1.65505 117.86583 3.9445 0.18713 -133.6337 -20.00653 2.39414 2.47019
-0.52473 -0.32354 0.01896 22.12323 47.7885 -6.68451 -22.00357 4.59237 -5.5703 -40.42921 5.20101 -0.83079 40.96207 2.93899 55.06346 22.63346 65.96119 44.19594 -4.46048 42.04734 11.23827 -63.82742 25.26494 -72.93164 46.19083 4.29997 117.95709 -7.72363 -1.81011 -134.00788 -21.36096 -0.99954 -1.6701 117.50115 3.94296 0.27207 -133.41593 -20.24755 2.37023 2.46731
-0.52441 -0.32301 0.01894 22.06486 48.12559 -6.51363 -22.04943 4.40351 -5.75827 -40.61446 5.36865 -0.83079 40.7198 3.34517 53.26305 22.10459 66.63461 43.99472 -3.86361 41.8591 11.23325 -63.44007 24.90355 -72.52571 45.79278 4.33684 117.4304 -7.68141 -1.91096 -133.79585 -21.44502 -1.01916 -1.68651 117.16611 3.94431 0.36718 -133.19783 -20.4775 2.33909 2.45918
-0.52415 -0.32256 0.01893 22.02353 48.45676 -6.37673 -22.06218 4.24022 -5.93768 -40.80242 5.53047 -0.83079 40.49319 3.73865 51.58498 21.56117 67.2491 43.7806 -3.30659 41.68719 11.22044 -63.10755 24.523 -72.14174 45.3794 4.3715 116.91151 -7.63565 -2.00567 -133.58551 -21.54272 -1.03597 -1.70177 116.82331 3.94465 0.45235 -132.9867 -20.70579 2.31209 2.45365
-0.52384 -0.32205 0.0189 21.97808 48.80956 -6.22209 -22.08051 4.05549 -6.138 -41.02372 5.70763 -0.83079 40.23695 4.18528 49.66501 20.95636 67.9729 43.5281 -2.66348 41.48957 11.19608 -62.69483 24.08764 -71.72509 44.91764 4.40389 116.34757 -7.58424 -2.11032 -133.3498 -21.6493 -1.05529 -1.71927 116.45373 3.94427 0.55917 -132.74659 -20.9623 2.28151 2.44726
-0.5236 -0.32163 0.0189 21.93273 49.11691 -6.08842 -22.10377 3.90465 -6.29641 -41.1685 5.85248 -0.83079 40.03784 4.52078 48.21533 20.49567 68.48549 43.36757 -2.19051 41.34009 11.20104 -62.42916 23.78386 -71.36992 44.57286 4.44232 115.88004 -7.54717 -2.19604 -133.16919 -21.72939 -1.07055 -1.73246 116.14812 3.9459 0.62393 -132.56665 -21.15753 2.25662 2.44138
-0.52358 -0.32152 0.01897 21.89898 49.30296 -6.03311 -22.12369 3.86047 -6.33898 -41.10996 5.91549 -0.83079 40.00145 4.54664 48.11125 20.42194 68.38716 43.45631 -2.20582 41.33129 11.2868 -62.60128 23.83491 -71.1905 44.54268 4.49688 115.67467 -7.54811 -2.22539 -133.13911 -21.74505 -1.0732 -1.73321 116.01045 3.95177 0.56639 -132.55526 -21.18455 2.24965 2.43836
-0.52364 -0.3215 0.01907 21.8662 49.44214 -6.00042 -22.14616 3.85172 -6.33876 -40.97392 5.94405 -0.83079 40.02312 4.46064 48.48429 20.49129 68.07444 43.63547 -2.39353 41.37143 11.40049 -62.92173 24.01538 -71.07484 44.62903 4.55717 115.56716 -7.56301 -2.23546 -133.16409 -21.73536 -1.07163 -1.72962 115.93677 3.95958 0.46691 -132.6041 -21.15054 2.24859 2.43599
-0.52366 -0.32144 0.01916 21.83132 49.59941 -5.95444 -22.16722 3.82549 -6.35682 -40.8708 5.98179 -0.83079 40.01793 4.42702 48.6323 20.49314 67.8649 43.76947 -2.49855 41.38785 11.49794 -63.16607 24.13193 -70.9316 44.66028 4.61408 115.41716 -7.57094 -2.2554 -133.1634 -21.73735 -1.07211 -1.72816 115.8351 3.96682 0.38918 -132.62386 -21.1456 2.24454 2.43317
-0.52369 -0.32139 0.01924 21.80206 49.77022 -5.91866 -22.1915 3.80334 -6.37993 -40.77676 6.04592 -0.83079 40.01406 4.38703 48.80957 20.50701 67.63376 43.92199 -2.62023 41.40971 11.61088 -63.4445 24.27197 -70.7811 44.7019 4.67418 115.25879 -7.58183 -2.27116 -133.16563 -21.73746 -1.0722 -1.72609 115.72983 3.97285 0.30056 -132.65063 -21.13478 2.24147 2.4308
-0.52372 -0.32134 0.01934 21.76197 49.9018 -5.86811 -22.2091 3.78189 -6.38245 -40.64567 6.04831 -0.83079 40.0215 4.33364 49.04134 20.52964 67.39579 44.05705 -2.74873 41.43213 11.6982 -63.68808 24.39334 -70.66153 44.74937 4.72929 115.14117 -7.5898 -2.29075 -133.17492 -21.73587 -1.07203 -1.72423 115.64687 3.98184 0.2244 -132.67733 -21.1217 2.2379 2.42774
-0.52377 -0.32127 0.01944 21.69043 49.93492 -5.76976 -22.20425 3.75242 -6.33688 -40.4309 5.87534 -0.83079 40.04579 4.27116 49.30624 20.53616 67.18967 44.11983 -2.85494 41.44452 11.7054 -63.80025 24.4282 -70.61011 44.78107 4.76558 115.11151 -7.58573 -2.32695 -133.18878 -21.73652 -1.07215 -1.72404 115.60995 3.9983 0.19393 -132.68748 -21.11839 2.23139 2.42252
-0.52382 -0.32119 0.01955 21.60847 49.93033 -5.65658 -22.19271 3.72304 -6.27232 -40.18172 5.64372 -0.83079 40.07953 4.19895 49.61051 20.54724 66.98387 44.16199 -2.96218 41.45579 11.68619 -63.87242 24.44012 -70.58817 44.81498 4.79712 115.11973 -7.57837 -2.36743 -133.20814 -21.73629 -1.07211 -1.72419 115.59321 4.01769 0.17718 -132.69591 -21.11468 2.22425 2.41663
-0.52387 -0.32112 0.01966 21.53218 49.94418 -5.55124 -22.18628 3.69447 -6.21756 -39.94854 5.44783 -0.83079 40.10923 4.13085 49.89776 20.55941 66.77884 44.21475 -3.06843 41.46749 11.68068 -63.96253 24.46434 -70.55388 44.84999 4.83338 115.11086 -7.57278 -2.40495 -133.22582 -21.73625 -1.07211 -1.72413 115.56691 4.03584 0.15346 -132.70603 -21.11064 2.21748 2.4111
-0.52394 -0.32103 0.01977 21.45155 49.95139 -5.44115 -22.17183 3.6629 -6.15645 -39.7109 5.21302 -0.83079 40.14009 4.06018 50.1974 20.5633 66.56304 44.26581 -3.1826 41.48141 11.66915 -64.05872 24.48509 -70.51706 44.88051 4.85969 115.10432 -7.56628 -2.44581 -133.24172 -21.73651 -1.07211 -1.72413 115.54411 4.05367 0.1315 -132.71389 -21.10703 2.21046 2.40531
-0.52396 -0.32098 0.01989 21.37799 49.96347 -5.33818 -22.17171 3.63793 -6.1045 -39.47567 5.04503 -0.83079 40.16976 3.99399 50.47499 20.5836 66.37186 44.31398 -3.2786 41.48955 11.66333 -64.13089 24.50605 -70.49208 44.91903 4.90466 115.10137 -7.56099 -2.48132 -133.26225 -21.73587 -1.07215 -1.72415 115.51845 4.07285 0.10951 -132.7259 -21.10272 2.20385 2.39995
-0.52382 -0.32098 0.02006 21.32196 50.00354 -5.24926 -22.21924 3.62394 -6.08379 -39.2538 5.08259 -0.83079 40.19608 3.94328 50.67469 20.6476 66.25564 44.36176 -3.32058 41.48431 11.68098 -64.14524 24.53161 -70.48883 44.98149 5.00984 115.09232 -7.55725 -2.49818 -133.29084 -21.73678 -1.07209 -1.72414 115.47558 4.095 0.08574 -132.74399 -21.10143 2.19771 2.3956
-0.52363 -0.32102 0.02025 21.27411 50.04905 -5.1694 -22.28029 3.61758 -6.07296 -39.03646 5.18836 -0.83079 40.22024 3.89786 50.84966 20.72732 66.16412 44.40646 -3.34398 41.47271 11.70492 -64.13628 24.5578 -70.49674 45.05095 5.13259 115.08627 -7.55522 -2.51005 -133.32416 -21.73633 -1.07213 -1.72415 115.42963 4.1184 0.06139 -132.76694 -21.09897 2.19212 2.39178
-0.52348 -0.32107 0.02044 21.22566 50.0888 -5.09166 -22.33074 3.61249 -6.05693 -38.81837 5.25864 -0.83079 40.24359 3.85008 51.03863 20.79942 66.05749 44.45041 -3.37749 41.46219 11.72497 -64.1381 24.58413 -70.50186 45.11497 5.24224 115.08287 -7.55412 -2.52624 -133.35735 -21.73405 -1.07231 -1.72418 115.38764 4.14125 0.03635 -132.79134 -21.09404 2.18683 2.38796
-0.52329 -0.32102 0.02062 21.16428 50.14104 -4.98806 -22.39932 3.58809 -6.04309 -38.59278 5.3457 -0.83079 40.27469 3.80163 51.21832 20.87373 65.96639 44.50262 -3.40441 41.45902 11.74838 -64.1379 24.60805 -70.49893 45.18845 5.37303 115.06422 -7.5459 -2.53421 -133.38258 -21.74173 -1.07174 -1.7241 115.33557 4.16415 0.01559 -132.80086 -21.10128 2.1793 2.38313
-0.52316 -0.32117 0.0208 21.13118 50.16913 -4.93941 -22.434 3.60486 -6.02742 -38.38527 5.41491 -0.83079 40.28922 3.75606 51.41 20.94715 65.84975 44.53734 -3.44023 41.43939 11.76673 -64.13677 24.63731 -70.5144 45.24414 5.4644 115.07717 -7.55269 -2.55769 -133.425 -21.72876 -1.07273 -1.72425 115.30348 4.18718 -0.01416 -132.84179 -21.08347 2.17646 2.3805
-0.52321 -0.32188 0.02097 21.18064 50.1286 -5.05117 -22.36694 3.74094 -6.0033 -38.21888 5.41749 -0.83079 40.25637 3.71665 51.64788 21.01373 65.64878 44.52279 -3.50833 41.37263 11.76886 -64.13948 24.68205 -70.58302 45.24616 5.43934 115.17944 -7.60284 -2.62856 -133.51746 -21.65544 -1.07831 -1.72508 115.32717 4.21044 -0.07056 -132.97495 -20.99193 2.18728 2.38428
-0.52333 -0.32277 0.02112 21.25717 50.06387 -5.21602 -22.2662 3.91684 -5.97724 -38.07216 5.40023 -0.83079 40.20724 3.68008 51.89724 21.07898 65.42261 44.49114 -3.58549 41.29009 11.76594 -64.14208 24.73212 -70.66867 45.23049 5.37461 115.31272 -7.66764 -2.71462 -133.62635 -21.56204 -1.08541 -1.72613 115.37099 4.23372 -0.13572 -133.13837 -20.87613 2.20264 2.39019
-0.52341 -0.32355 0.02128 21.31708 50.01081 -5.34939 -22.18415 4.06954 -5.95286 -37.92167 5.39271 -0.83079 40.16696 3.64265 52.13632 21.14509 65.21326 44.46852 -3.65637 41.21689 11.76593 -64.14444 24.77923 -70.74298 45.22477 5.33023 115.42971 -7.72421 -2.79149 -133.7252 -21.48027 -1.09163 -1.72704 115.40555 4.25687 -0.19561 -133.28351 -20.77466 2.21534 2.39485
-0.52351 -0.32444 0.02145 21.39538 49.9551 -5.5138 -22.08844 4.24386 -5.92561 -37.7495 5.38424 -0.83079 40.12058 3.60374 52.39544 21.21045 64.98259 44.44048 -3.73551 41.13441 11.76351 -64.1472 24.82846 -70.83281 45.21136 5.27674 115.55592 -7.78742 -2.87767 -133.83496 -21.38797 -1.09864 -1.72813 115.44042 4.28061 -0.26083 -133.44772 -20.65925 2.23054 2.40072
-0.52359 -0.32514 0.02159 21.44185 49.89906 -5.62643 -22.01278 4.38274 -5.90353 -37.62709 5.37241 -0.83079 40.08296 3.56834 52.61649 21.27712 64.78939 44.41969 -3.80009 41.06748 11.76484 -64.14941 24.87474 -70.89431 45.20955 5.23246 115.67047 -7.84032 -2.94834 -133.926 -21.31271 -1.10438 -1.72888 115.47956 4.30306 -0.3172 -133.57959 -20.56703 2.24165 2.40458
-0.52362 -0.32525 0.02163 21.39228 49.84854 -5.57965 -22.00267 4.41196 -5.89803 -37.6373 5.35364 -0.83079 40.07447 3.54345 52.72445 21.34543 64.71118 44.42354 -3.82017 41.04841 11.77784 -64.15032 24.90969 -70.87242 45.24504 5.22425 115.74317 -7.86049 -2.97065 -133.95988 -21.29085 -1.1063 -1.72872 115.52459 4.3223 -0.34511 -133.61237 -20.54579 2.24006 2.40221
-0.52363 -0.32515 0.02165 21.31001 49.79839 -5.47946 -22.01345 4.40445 -5.89744 -37.69678 5.33221 -0.83079 40.07524 3.52168 52.79486 21.41542 64.67049 44.43522 -3.82578 41.04539 11.79472 -64.15076 24.94177 -70.82157 45.2926 5.22644 115.80343 -7.86986 -2.97706 -133.97457 -21.2866 -1.10688 -1.7282 115.5734 4.34019 -0.36403 -133.61191 -20.54855 2.23426 2.39778
-0.52364 -0.32516 0.02167 21.24362 49.74774 -5.406 -22.01329 4.4151 -5.89329 -37.73383 5.31344 -0.83079 40.0711 3.49749 52.88591 21.48608 64.60887 44.44306 -3.83946 41.03436 11.80977 -64.15143 24.97643 -70.78458 45.33394 5.22313 115.8707 -7.88468 -2.99211 -133.999 -21.2733 -1.10806 -1.72781 115.62115 4.35847 -0.38846 -133.62827 -20.53962 2.23059 2.39441
-0.52366 -0.32514 0.0217 21.17374 49.69772 -5.32423 -22.01806 4.42109 -5.89452 -37.77221 5.2883 -0.83079 40.06913 3.47766 52.96202 21.55077 64.56243 44.45148 -3.84708 41.02573 11.82505 -64.15203 25.0061 -70.74522 45.37774 5.22159 115.93328 -7.8979 -3.00223 -134.01981 -21.26358 -1.10936 -1.72759 115.66691 4.37768 -0.40768 -133.63871 -20.53309 2.22618 2.39058
-0.52366 -0.32511 0.02172 21.10316 49.64672 -5.2461 -22.01799 4.42738 -5.88592 -37.81867 5.27554 -0.83079 40.06531 3.44943 53.06046 21.62816 64.49401 44.4608 -3.86381 41.01622 11.84068 -64.15266 25.04515 -70.70371 45.41956 5.21953 116.00232 -7.91148 -3.01801 -134.04326 -21.251 -1.11005 -1.72691 115.71737 4.39466 -0.43489 -133.65289 -20.52767 2.22223 2.38719
-0.52361 -0.32511 0.02176 21.0371 49.59368 -5.19341 -21.99926 4.44471 -5.84751 -37.88015 5.30211 -0.83079 40.05193 3.39749 53.22727 21.74154 64.35232 44.47039 -3.90889 40.99947 11.85755 -64.15349 25.11321 -70.66315 45.45252 5.21209 116.0915 -7.93059 -3.05868 -134.07959 -21.22497 -1.10957 -1.72511 115.78029 4.40543 -0.49167 -133.68776 -20.51886 2.22068 2.38552
-0.52354 -0.32511 0.0218 20.97163 49.53964 -5.14556 -21.97512 4.46322 -5.79933 -37.94702 5.34061 -0.83079 40.03682 3.33694 53.41808 21.86735 64.18802 44.48074 -3.96358 40.98151 11.87442 -64.15436 25.19029 -70.62145 45.48322 5.20432 116.18753 -7.95005 -3.10454 -134.11895 -21.19578 -1.10848 -1.72285 115.84762 4.41406 -0.55578 -133.72694 -20.5106 2.21971 2.38435
